HIERARCHY
ROOT Hips
{
	OFFSET 0.00000 0.00000 0.00000
	CHANNELS 6 Xposition Yposition Zposition Zrotation Yrotation Xrotation 
	JOINT LHipJoint
	{
		OFFSET 0 0 0
		CHANNELS 3 Zrotation Yrotation Xrotation
		JOINT LeftHip
		{
			OFFSET 1.62329 -1.80800 0.67318
			CHANNELS 3 Zrotation Yrotation Xrotation
			JOINT LeftKnee
			{
				OFFSET 2.57139 -7.06484 0.00000
				CHANNELS 3 Zrotation Yrotation Xrotation
				JOINT LeftAnkle
				{
					OFFSET 2.52017 -6.92413 0.00000
					CHANNELS 3 Zrotation Yrotation Xrotation
					JOINT LeftToe
					{
						OFFSET 0.23295 -0.64001 2.10214
						CHANNELS 3 Zrotation Yrotation Xrotation
						End Site
						{
							OFFSET 0.00000 -0.00000 1.10139
						}
					}
				}
			}
		}
	}
	JOINT RHipJoint
	{
		OFFSET 0 0 0
		CHANNELS 3 Zrotation Yrotation Xrotation
		JOINT RightHip
		{
			OFFSET -1.48061 -1.80800 0.67318
			CHANNELS 3 Zrotation Yrotation Xrotation
			JOINT RightKnee
			{
				OFFSET -2.63258 -7.23296 0.00000
				CHANNELS 3 Zrotation Yrotation Xrotation
				JOINT RightAnkle
				{
					OFFSET -2.54779 -7.00000 0.00000
					CHANNELS 3 Zrotation Yrotation Xrotation
					JOINT RightToe
					{
						OFFSET -0.23067 -0.63376 2.12161
						CHANNELS 3 Zrotation Yrotation Xrotation
						End Site
						{
							OFFSET -0.00000 -0.00000 1.11000
						}
					}
				}
			}
		}
	}
	JOINT lowerback
	{
		OFFSET 0 0 0
		CHANNELS 3 Zrotation Yrotation Xrotation
		JOINT Chest
		{
			OFFSET -0.02108 2.07573 -0.16981
			CHANNELS 3 Zrotation Yrotation Xrotation
			JOINT Chest2
			{
				OFFSET 0.05070 2.08439 -0.03141
				CHANNELS 3 Zrotation Yrotation Xrotation
				JOINT lowerneck
				{
					OFFSET 0 0 0
					CHANNELS 3 Zrotation Yrotation Xrotation
					JOINT Neck
					{
						OFFSET -0.10731 1.60408 0.31370
						CHANNELS 3 Zrotation Yrotation Xrotation
						JOINT Head
						{
							OFFSET 0.08411 1.65679 -0.30822
							CHANNELS 3 Zrotation Yrotation Xrotation
							End Site
							{
								OFFSET 0.03911 1.69149 -0.14146
							}
						}
					}
				}
				JOINT LeftCollar
				{
					OFFSET 0 0 0
					CHANNELS 3 Zrotation Yrotation Xrotation
					JOINT LeftShoulder
					{
						OFFSET 3.52315 0.73219 -0.54694
CHANNELS 3 Zrotation Xrotation Yrotation
						JOINT LeftElbow
						{
OFFSET 0 -5.324620 -0.000000
CHANNELS 3 Zrotation Xrotation Yrotation
							JOINT LeftWrist
							{
OFFSET 0 -3.484020 -0.000000
CHANNELS 3 Zrotation Xrotation Yrotation
								JOINT lhand
								{
									OFFSET 0 0 0
CHANNELS 3 Zrotation Xrotation Yrotation
									JOINT LFingers
									{
OFFSET 0 -0.572480 -0.000000
CHANNELS 3 Zrotation Xrotation Yrotation
										End Site
										{
OFFSET 0 -0.461540 -0.000000
										}
									}
								}
								JOINT LThumb
								{
OFFSET 0 0.000000 0.000000
CHANNELS 3 Zrotation Xrotation Yrotation
									End Site
									{
OFFSET 0 -0.468590 0.468590
									}
								}
							}
						}
					}
				}
				JOINT RightCollar
				{
					OFFSET 0 0 0
					CHANNELS 3 Zrotation Yrotation Xrotation
					JOINT RightShoulder
					{
						OFFSET -3.41766 0.93592 -0.10019
CHANNELS 3 Zrotation Xrotation Yrotation
						JOINT RightElbow
						{
OFFSET 0 -5.335890 -0.000000
CHANNELS 3 Zrotation Xrotation Yrotation
							JOINT RightWrist
							{
OFFSET 0 -3.641340 -0.000000
CHANNELS 3 Zrotation Xrotation Yrotation
								JOINT rhand
								{
									OFFSET 0 0 0
CHANNELS 3 Zrotation Xrotation Yrotation
									JOINT RFingers
									{
OFFSET 0 -0.734810 -0.000000
CHANNELS 3 Zrotation Xrotation Yrotation
										End Site
										{
OFFSET 0 -0.592420 -0.000000
										}
									}
								}
								JOINT RThumb
								{
OFFSET 0 0.000000 0.000000
CHANNELS 3 Zrotation Xrotation Yrotation
									End Site
									{
OFFSET 0 -0.601470 0.601470
									}
								}
							}
						}
					}
				}
			}
		}
	}
}
MOTION
Frames: 7
Frame Time: 0.008333333333333333
0.455814 29.193491 -5.597544 -356.817835 -61.954663 3.900083 0.000000 0.000000 0.000000 -21.666467 -10.460778 -13.898870 1.181307 6.897840 19.413075 -0.409161 -15.079101 -5.210380 0.552077 -4.758721 -13.221978 0.000000 0.000000 0.000000 13.565301 7.460645 -22.937819 -5.882874 -14.313739 44.509695 -1.252623 5.180052 -20.079772 -0.115638 -2.174433 5.988460 -1.841830 -0.041332 4.384601 1.589960 -0.126759 1.188545 2.674978 -0.066382 -1.229347 -8.576629 3.951615 -13.909370 -3.125607 8.926947 41.378685 1.553339 1.389773 17.460296 0.000000 0.000000 0.000000 3.166198 0.798685 -3.385164 16.299471 -25.925044 3.775964 19.236625 12.120469 -24.760696 0.000000 0.000000 0.000000 -7.125000 0.000000 0.000000 -11.110940 55.669994 2.935479 0.000000 0.000000 0.000000 -11.214002 -1.128664 14.078239 -21.274039 -32.146811 -6.195160 -24.055778 11.822496 -4.982714 0.000000 0.000000 0.000000 7.125000 0.000000 0.000000 1.955874 24.526070 0.968153
0.389679 29.153727 -5.662760 -356.964149 -59.290380 4.059878 0.000000 0.000000 0.000000 -21.216571 -11.918528 -13.883127 1.249409 7.086859 19.973050 -0.505600 -15.810574 -4.580621 0.182679 -2.751324 -7.587203 0.000000 0.000000 0.000000 13.183687 9.409404 -21.753416 -5.268801 -13.679958 41.970726 -1.190886 4.164302 -19.668075 -0.092958 1.958084 -5.390241 -2.065692 -0.390228 4.617823 1.706720 -0.603145 1.185153 2.949590 -0.302743 -1.330654 -8.558916 3.958355 -13.939568 -3.490054 9.118933 41.180592 1.424042 1.446535 17.391123 0.000000 0.000000 0.000000 2.870380 0.762227 -2.478100 16.250472 -25.859054 3.754530 17.843179 11.900244 -25.736700 0.000000 0.000000 0.000000 -7.125000 0.000000 0.000000 -13.036618 56.359862 3.676243 0.000000 0.000000 0.000000 -11.205662 -0.869884 16.090738 -22.113966 -33.105520 -6.647975 -25.185471 11.649559 -2.979001 0.000000 0.000000 0.000000 7.125000 0.000000 0.000000 1.082285 26.688329 0.481595
0.303241 29.154095 -5.713253 -357.056127 -57.347546 4.547424 0.000000 0.000000 0.000000 -20.856620 -12.334880 -14.454882 1.307480 7.243410 20.438626 -0.648031 -17.213076 -4.258369 0.161671 -2.579774 -7.111659 0.000000 0.000000 0.000000 12.212129 12.541951 -20.497445 -4.692236 -13.028121 39.474727 -1.104147 6.505340 -18.764417 -0.197502 2.861469 -7.893243 -2.289544 -0.504017 4.103835 1.790134 -0.753520 1.096933 3.163888 -0.378748 -1.119861 -8.822504 4.002038 -13.728390 -3.475740 9.263503 41.129731 1.496559 1.488735 17.292669 0.000000 0.000000 0.000000 2.861549 0.783340 -1.696355 16.200243 -25.791447 3.732708 16.848511 12.973234 -25.864786 0.000000 0.000000 0.000000 -7.125000 0.000000 0.000000 -14.135218 56.280910 3.969516 0.000000 0.000000 0.000000 -10.519473 -1.230916 15.754639 -22.075809 -33.062606 -6.627130 -25.946710 13.422296 -1.947379 0.000000 0.000000 0.000000 7.125000 0.000000 0.000000 0.489900 27.814203 0.204740
0.207730 29.141590 -5.759897 -357.923599 -55.239986 5.529489 0.000000 0.000000 0.000000 -20.058071 -12.762362 -14.904126 1.377096 7.425890 20.983339 -0.761800 -19.087971 -5.292618 0.578530 -4.864787 -13.524564 0.000000 0.000000 0.000000 11.959667 14.941604 -19.164582 -4.147685 -12.353745 36.996061 -0.830643 8.739366 -16.465341 -0.487228 4.473397 -12.412861 -1.884835 -0.564758 3.701046 1.914458 -0.811747 1.107031 3.060750 -0.412060 -0.884186 -9.066027 3.915190 -13.873053 -3.187876 9.172842 41.160140 1.662285 1.467048 17.310114 0.000000 0.000000 0.000000 2.989412 0.569399 -1.985574 15.935607 -25.433284 3.618293 18.126680 12.299686 -24.931477 0.000000 0.000000 0.000000 -7.125000 0.000000 0.000000 -12.339352 55.617129 3.251061 0.000000 0.000000 0.000000 -10.327274 -1.223013 16.254055 -22.341434 -33.360638 -6.772643 -25.833548 13.944288 -2.501032 0.000000 0.000000 0.000000 7.125000 0.000000 0.000000 0.581955 27.201422 0.251659
0.122215 29.126864 -5.829371 -359.215533 -52.630224 6.237246 0.000000 0.000000 0.000000 -18.874373 -13.555344 -14.761610 1.443285 7.594818 21.489996 -0.936956 -20.696052 -5.272043 0.774657 -5.619643 -15.684657 0.000000 0.000000 0.000000 12.456144 16.902704 -17.317712 -3.691974 -11.738435 34.813323 -0.585822 11.114871 -14.680849 -0.514812 4.598100 -12.765893 -1.047342 -0.693632 4.102692 1.995554 -0.957361 1.296416 2.683216 -0.487668 -0.917246 -8.509019 3.887804 -14.091594 -3.493599 9.171527 41.065870 1.444299 1.529293 17.369158 0.000000 0.000000 0.000000 3.411324 0.283513 -2.327080 15.957647 -25.463104 3.627732 17.665332 12.185891 -25.414129 0.000000 0.000000 0.000000 -7.125000 0.000000 0.000000 -13.054932 56.003851 3.567381 0.000000 0.000000 0.000000 -9.938419 -1.091641 16.798841 -22.803688 -33.873279 -7.028639 -25.849948 14.075692 -2.902399 0.000000 0.000000 0.000000 7.125000 0.000000 0.000000 0.574269 26.755083 0.254262
0.028317 29.119206 -5.904432 -358.863895 -50.286907 5.476306 0.000000 0.000000 0.000000 -18.813629 -13.999886 -14.312106 1.445349 7.599898 21.505262 -1.169480 -22.131529 -4.471502 0.757362 -5.557591 -15.505994 0.000000 0.000000 0.000000 12.034634 18.888122 -15.477394 -3.392050 -11.303984 33.312434 -0.345977 12.490195 -12.799909 -0.337583 3.728037 -10.313388 -1.385504 -0.765550 4.659512 1.899830 -1.072598 1.450831 2.788895 -0.545417 -1.058838 -8.810911 3.780077 -13.999555 -3.048471 8.954953 40.999488 1.660892 1.485309 17.254105 0.000000 0.000000 0.000000 3.900556 -0.079267 -2.836876 15.662420 -25.060735 3.501753 17.353468 12.189617 -25.415358 0.000000 0.000000 0.000000 -7.125000 0.000000 0.000000 -13.377110 55.941653 3.637321 0.000000 0.000000 0.000000 -9.567833 -0.765175 18.034787 -23.527658 -34.660476 -7.436281 -25.387322 12.942443 -3.070169 0.000000 0.000000 0.000000 7.125000 0.000000 0.000000 0.929372 26.581738 0.414922
-0.069762 29.109006 -5.976042 -358.434773 -47.990408 4.988867 0.000000 0.000000 0.000000 -18.792851 -14.421859 -13.985547 1.386622 7.450574 21.057320 -1.488891 -23.518046 -2.603492 0.477282 -4.394750 -12.195261 0.000000 0.000000 0.000000 11.638636 20.240031 -14.336881 -3.223197 -11.047824 32.441406 -0.140320 13.216664 -10.949736 -0.187615 2.767792 -7.634208 -1.779752 -0.833482 4.879592 1.805878 -1.183412 1.465414 2.924285 -0.599134 -1.153971 -9.220584 3.632533 -13.892834 -2.520858 8.688858 41.258991 1.924560 1.385863 17.314515 0.000000 0.000000 0.000000 4.175350 -0.205295 -3.141547 15.639238 -25.029124 3.491955 17.911771 12.541712 -25.199234 0.000000 0.000000 0.000000 -7.125000 0.000000 0.000000 -12.692545 55.840462 3.415512 0.000000 0.000000 0.000000 -9.226093 -0.655284 18.217207 -23.756025 -34.905156 -7.566474 -24.136428 13.385752 -4.216744 0.000000 0.000000 0.000000 7.125000 0.000000 0.000000 1.887735 25.361008 0.898857
